<svg xmlns="http://www.w3.org/2000/svg" version="1.1" width="3300" height="2000"><g id="Notes"><style>
    text {
      font-family: monospace;
      text-anchor: middle;
    }
    text.emphasis {
      font-weight:bold;
    }
    text.lanchor {
      text-anchor: start;
    }
  </style><rect height="2200" id="artboard" fill="white" width="3300" x="0" y="0"/><line id="" style="fill:none;stroke:black;stroke-width:0.5;" x1="263" x2="3036" y1="292" y2="292"/><text class="lanchor emphasis" transform="matrix(1 0 0 1 263 322)">Weight/Scale Variations</text><text transform="matrix(1 0 0 1 559.711 322)">Ultralight</text><text transform="matrix(1 0 0 1 856.422 322)">Thin</text><text transform="matrix(1 0 0 1 1153.13 322)">Light</text><text transform="matrix(1 0 0 1 1449.84 322)">Regular</text><text transform="matrix(1 0 0 1 1746.56 322)">Medium</text><text transform="matrix(1 0 0 1 2043.27 322)">Semibold</text><text transform="matrix(1 0 0 1 2339.98 322)">Bold</text><text transform="matrix(1 0 0 1 2636.69 322)">Heavy</text><text transform="matrix(1 0 0 1 2933.4 322)">Black</text><text id="template-version" style="text-anchor: end;" transform="matrix(1 0 0 1 3036 1933)">Template v.1.0</text><text class="lanchor" transform="matrix(1 0 0 1 263 726)">Small</text><text class="lanchor" transform="matrix(1 0 0 1 263 1156)">Medium</text><text class="lanchor" transform="matrix(1 0 0 1 263 1586)">Large</text></g><g id="Guides"><g id="H-reference" style="fill:#27AAE1;stroke:none;" transform="matrix(1 0 0 1 339 696)"><path d="M 54.9316 0 L 57.666 0 L 30.5664 -70.459 L 28.0762 -70.459 L 0.976562 0 L 3.66211 0 L 12.9395 -24.4629 L 45.7031 -24.4629 Z M 29.1992 -67.0898 L 29.4434 -67.0898 L 44.8242 -26.709 L 13.8184 -26.709 Z"/></g><line id="Baseline-S" style="fill:none;stroke:#27AAE1;opacity:1;stroke-width:0.577;" x1="263" x2="3036" y1="696" y2="696"/><line id="Capline-S" style="fill:none;stroke:#27AAE1;opacity:1;stroke-width:0.577;" x1="263" x2="3036" y1="625.541" y2="625.541"/><g id="H-reference" style="fill:#27AAE1;stroke:none;" transform="matrix(1 0 0 1 339 1126)"><path d="M 54.9316 0 L 57.666 0 L 30.5664 -70.459 L 28.0762 -70.459 L 0.976562 0 L 3.66211 0 L 12.9395 -24.4629 L 45.7031 -24.4629 Z M 29.1992 -67.0898 L 29.4434 -67.0898 L 44.8242 -26.709 L 13.8184 -26.709 Z"/></g><line id="Baseline-M" style="fill:none;stroke:#27AAE1;opacity:1;stroke-width:0.577;" x1="263" x2="3036" y1="1126" y2="1126"/><line id="Capline-M" style="fill:none;stroke:#27AAE1;opacity:1;stroke-width:0.577;" x1="263" x2="3036" y1="1055.54" y2="1055.54"/><g id="H-reference" style="fill:#27AAE1;stroke:none;" transform="matrix(1 0 0 1 339 1556)"><path d="M 54.9316 0 L 57.666 0 L 30.5664 -70.459 L 28.0762 -70.459 L 0.976562 0 L 3.66211 0 L 12.9395 -24.4629 L 45.7031 -24.4629 Z M 29.1992 -67.0898 L 29.4434 -67.0898 L 44.8242 -26.709 L 13.8184 -26.709 Z"/></g><line id="Baseline-L" style="fill:none;stroke:#27AAE1;opacity:1;stroke-width:0.577;" x1="263" x2="3036" y1="1556" y2="1556"/><line id="Capline-L" style="fill:none;stroke:#27AAE1;opacity:1;stroke-width:0.577;" x1="263" x2="3036" y1="1485.54" y2="1485.54"/><rect height="119.336" id="left-margin" style="fill:darkred;stroke:none;opacity:0.4;" width="12.4512" x="1394.06" y="1030.79"/><rect height="119.336" id="right-margin" style="fill:darkgreen;stroke:none;opacity:0.4;" width="12.4512" x="1502.5112" y="1030.79"/><rect x="1406.5112" y="1045" width="96" height="96" fill="none" stroke="blue" stroke-dasharray="5"/><rect x="1394.06" y="1030.79" width="120.9024" height="119.336" fill="none" stroke="blue"/></g><g id="Symbols"><g id="Bold-L" transform="matrix(1 0 0 1 2266 1556)"><path d="M24.026 26.851 Q17.729 26.851 13.299 22.421 Q8.869 17.991 8.869 11.694 V-82.154 Q8.869 -88.517 13.299 -92.995 Q17.729 -97.472 24.026 -97.472 H130.774 Q137.137 -97.472 141.615 -92.995 Q146.093 -88.517 146.093 -82.154 V11.694 Q146.093 17.991 141.615 22.421 Q137.137 26.851 130.774 26.851 H24.026 Z M24.026 11.694 H130.774 Q130.774 11.694 130.774 11.694 Q130.774 11.694 130.774 11.694 V-82.154 Q130.774 -82.154 130.774 -82.154 Q130.774 -82.154 130.774 -82.154 H24.026 Q24.026 -82.154 24.026 -82.154 Q24.026 -82.154 24.026 -82.154 V11.694 Q24.026 11.694 24.026 11.694 Q24.026 11.694 24.026 11.694 Z M40.958 -4.754 H114.004 V-14.429 H40.958 V-4.754 Z M40.958 -30.715 H65.951 V-65.867 H40.958 V-30.715 Z M81.915 -30.715 H114.004 V-40.39 H81.915 V-30.715 Z M81.915 -56.192 H114.004 V-65.867 H81.915 V-56.192 Z"/></g><g id="Semibold-L" transform="matrix(1 0 0 1 1970.27 1556)"><path d="M23.395 25.099 Q18.154 25.099 14.388 21.332 Q10.621 17.566 10.621 12.325 V-82.785 Q10.621 -88.064 14.388 -91.857 Q18.154 -95.65 23.395 -95.65 H131.405 Q136.684 -95.65 140.477 -91.857 Q144.27 -88.064 144.27 -82.785 V12.325 Q144.27 17.566 140.477 21.332 Q136.684 25.099 131.405 25.099 H23.395 Z M23.395 12.325 H131.405 Q131.405 12.325 131.405 12.325 Q131.405 12.325 131.405 12.325 V-82.785 Q131.405 -82.785 131.405 -82.785 Q131.405 -82.785 131.405 -82.785 H23.395 Q23.395 -82.785 23.395 -82.785 Q23.395 -82.785 23.395 -82.785 V12.325 Q23.395 12.325 23.395 12.325 Q23.395 12.325 23.395 12.325 Z M40.607 -4.403 H114.284 V-14.078 H40.607 V-4.403 Z M40.607 -30.715 H65.601 V-66.148 H40.607 V-30.715 Z M81.915 -30.715 H114.284 V-40.39 H81.915 V-30.715 Z M81.915 -56.473 H114.284 V-66.148 H81.915 V-56.473 Z"/></g><g id="Medium-L" transform="matrix(1 0 0 1 1674.31 1556)"><path d="M22.922 23.784 Q18.472 23.784 15.204 20.516 Q11.936 17.248 11.936 12.798 V-83.258 Q11.936 -87.724 15.204 -91.003 Q18.472 -94.283 22.922 -94.283 H131.878 Q136.344 -94.283 139.623 -91.003 Q142.903 -87.724 142.903 -83.258 V12.798 Q142.903 17.248 139.623 20.516 Q136.344 23.784 131.878 23.784 H22.922 Z M22.922 12.798 H131.878 Q131.878 12.798 131.878 12.798 Q131.878 12.798 131.878 12.798 V-83.258 Q131.878 -83.258 131.878 -83.258 Q131.878 -83.258 131.878 -83.258 H22.922 Q22.922 -83.258 22.922 -83.258 Q22.922 -83.258 22.922 -83.258 V12.798 Q22.922 12.798 22.922 12.798 Q22.922 12.798 22.922 12.798 Z M40.344 -4.14 H114.494 V-13.815 H40.344 V-4.14 Z M40.344 -30.715 H65.338 V-66.358 H40.344 V-30.715 Z M81.915 -30.715 H114.494 V-40.39 H81.915 V-30.715 Z M81.915 -56.683 H114.494 V-66.358 H81.915 V-56.683 Z"/></g><g id="Regular-L" transform="matrix(1 0 0 1 1378.56 1556)"><path d="M22.575 22.82 Q18.705 22.82 15.803 19.918 Q12.9 17.015 12.9 13.145 V-83.605 Q12.9 -87.475 15.803 -90.377 Q18.705 -93.28 22.575 -93.28 H132.225 Q136.095 -93.28 138.998 -90.377 Q141.9 -87.475 141.9 -83.605 V13.145 Q141.9 17.015 138.998 19.918 Q136.095 22.82 132.225 22.82 H22.575 Z M22.575 13.145 H132.225 Q132.225 13.145 132.225 13.145 Q132.225 13.145 132.225 13.145 V-83.605 Q132.225 -83.605 132.225 -83.605 Q132.225 -83.605 132.225 -83.605 H22.575 Q22.575 -83.605 22.575 -83.605 Q22.575 -83.605 22.575 -83.605 V13.145 Q22.575 13.145 22.575 13.145 Q22.575 13.145 22.575 13.145 Z M40.151 -3.947 H114.649 V-13.622 H40.151 V-3.947 Z M40.151 -30.715 H65.145 V-66.512 H40.151 V-30.715 Z M81.915 -30.715 H114.649 V-40.39 H81.915 V-30.715 Z M81.915 -56.837 H114.649 V-66.512 H81.915 V-56.837 Z"/></g><g id="Light-L" transform="matrix(1 0 0 1 1082.77 1556)"><path d="M25.428 19.595 Q21.634 19.595 18.88 16.84 Q16.125 14.086 16.125 10.292 V-80.752 Q16.125 -84.546 18.88 -87.3 Q21.634 -90.055 25.428 -90.055 H129.372 Q133.166 -90.055 135.92 -87.3 Q138.675 -84.546 138.675 -80.752 V10.292 Q138.675 14.086 135.92 16.84 Q133.166 19.595 129.372 19.595 H25.428 Z M25.428 12.277 H129.372 Q130.116 12.277 130.737 11.657 Q131.357 11.036 131.357 10.292 V-80.752 Q131.357 -81.496 130.737 -82.117 Q130.116 -82.737 129.372 -82.737 H25.428 Q24.684 -82.737 24.063 -82.117 Q23.443 -81.496 23.443 -80.752 V10.292 Q23.443 11.036 24.063 11.657 Q24.684 12.277 25.428 12.277 Z M42.26 -6.18 H112.54 V-13.498 H42.26 V-6.18 Z M42.26 -31.831 H65.455 V-64.28 H42.26 V-31.831 Z M82.411 -31.831 H112.54 V-39.15 H82.411 V-31.831 Z M82.411 -56.962 H112.54 V-64.28 H82.411 V-56.962 Z"/></g><g id="Thin-L" transform="matrix(1 0 0 1 787.282 1556)"><path d="M28.281 16.37 Q24.563 16.37 21.956 13.764 Q19.35 11.157 19.35 7.439 V-77.899 Q19.35 -81.617 21.956 -84.224 Q24.563 -86.83 28.281 -86.83 H126.519 Q130.237 -86.83 132.844 -84.224 Q135.45 -81.617 135.45 -77.899 V7.439 Q135.45 11.157 132.844 13.764 Q130.237 16.37 126.519 16.37 H28.281 Z M28.281 11.408 H126.519 Q128.008 11.408 129.248 10.168 Q130.488 8.928 130.488 7.439 V-77.899 Q130.488 -79.388 129.248 -80.628 Q128.008 -81.868 126.519 -81.868 H28.281 Q26.792 -81.868 25.552 -80.628 Q24.312 -79.388 24.312 -77.899 V7.439 Q24.312 8.928 25.552 10.168 Q26.792 11.408 28.281 11.408 Z M44.369 -8.413 H110.431 V-13.374 H44.369 V-8.413 Z M44.369 -32.948 H65.765 V-62.047 H44.369 V-32.948 Z M82.907 -32.948 H110.431 V-37.909 H82.907 V-32.948 Z M82.907 -57.086 H110.431 V-62.047 H82.907 V-57.086 Z"/></g><g id="Ultralight-L" transform="matrix(1 0 0 1 491.205 1556)"><path d="M29.992 14.435 Q26.32 14.435 23.803 11.917 Q21.285 9.4 21.285 5.728 V-76.187 Q21.285 -79.86 23.803 -82.378 Q26.32 -84.895 29.992 -84.895 H124.808 Q128.48 -84.895 130.998 -82.378 Q133.515 -79.86 133.515 -76.187 V5.728 Q133.515 9.4 130.998 11.917 Q128.48 14.435 124.808 14.435 H29.992 Z M29.992 10.888 H124.808 Q126.743 10.888 128.355 9.275 Q129.968 7.663 129.968 5.728 V-76.187 Q129.968 -78.122 128.355 -79.735 Q126.743 -81.347 124.808 -81.347 H29.992 Q28.058 -81.347 26.445 -79.735 Q24.832 -78.122 24.832 -76.187 V5.728 Q24.832 7.663 26.445 9.275 Q28.058 10.888 29.992 10.888 Z M45.634 -9.752 H109.166 V-13.3 H45.634 V-9.752 Z M45.634 -33.617 H65.951 V-60.707 H45.634 V-33.617 Z M83.205 -33.617 H109.166 V-37.165 H83.205 V-33.617 Z M83.205 -57.16 H109.166 V-60.707 H83.205 V-57.16 Z"/></g><g id="Bold-M" transform="matrix(1 0 0 1 2281.8 1126)"><path d="M21.5 14.02 Q14.875 14.02 10.312 9.458 Q5.75 4.895 5.75 -1.73 V-68.73 Q5.75 -75.355 10.312 -79.917 Q14.875 -84.48 21.5 -84.48 H98.5 Q105.125 -84.48 109.688 -79.917 Q114.25 -75.355 114.25 -68.73 V-1.73 Q114.25 4.895 109.688 9.458 Q105.125 14.02 98.5 14.02 H21.5 Z M21.5 -1.73 H98.5 Q98.5 -1.73 98.5 -1.73 Q98.5 -1.73 98.5 -1.73 V-68.73 Q98.5 -68.73 98.5 -68.73 Q98.5 -68.73 98.5 -68.73 H21.5 Q21.5 -68.73 21.5 -68.73 Q21.5 -68.73 21.5 -68.73 V-1.73 Q21.5 -1.73 21.5 -1.73 Q21.5 -1.73 21.5 -1.73 Z M30.75 -10.98 H89.25 V-20.98 H30.75 V-10.98 Z M30.75 -30.23 H50.75 V-59.48 H30.75 V-30.23 Z M60 -30.23 H89.25 V-40.23 H60 V-30.23 Z M60 -49.48 H89.25 V-59.48 H60 V-49.48 Z"/></g><g id="Semibold-M" transform="matrix(1 0 0 1 1985.97 1126)"><path d="M20.848 12.172 Q15.31 12.172 11.454 8.316 Q7.598 4.46 7.598 -1.078 V-69.382 Q7.598 -74.92 11.454 -78.776 Q15.31 -82.632 20.848 -82.632 H99.152 Q104.69 -82.632 108.546 -78.776 Q112.402 -74.92 112.402 -69.382 V-1.078 Q112.402 4.46 108.546 8.316 Q104.69 12.172 99.152 12.172 H20.848 Z M20.848 -1.078 H99.152 Q99.152 -1.078 99.152 -1.078 Q99.152 -1.078 99.152 -1.078 V-69.382 Q99.152 -69.382 99.152 -69.382 Q99.152 -69.382 99.152 -69.382 H20.848 Q20.848 -69.382 20.848 -69.382 Q20.848 -69.382 20.848 -69.382 V-1.078 Q20.848 -1.078 20.848 -1.078 Q20.848 -1.078 20.848 -1.078 Z M30.424 -10.654 H89.576 V-20.654 H30.424 V-10.654 Z M30.424 -30.23 H50.424 V-59.806 H30.424 V-30.23 Z M60 -30.23 H89.576 V-40.23 H60 V-30.23 Z M60 -49.806 H89.576 V-59.806 H60 V-49.806 Z"/></g><g id="Medium-M" transform="matrix(1 0 0 1 1689.91 1126)"><path d="M20.359 10.786 Q15.636 10.786 12.31 7.46 Q8.984 4.134 8.984 -0.589 V-69.871 Q8.984 -74.594 12.31 -77.92 Q15.636 -81.246 20.359 -81.246 H99.641 Q104.364 -81.246 107.69 -77.92 Q111.016 -74.594 111.016 -69.871 V-0.589 Q111.016 4.134 107.69 7.46 Q104.364 10.786 99.641 10.786 H20.359 Z M20.359 -0.589 H99.641 Q99.641 -0.589 99.641 -0.589 Q99.641 -0.589 99.641 -0.589 V-69.871 Q99.641 -69.871 99.641 -69.871 Q99.641 -69.871 99.641 -69.871 H20.359 Q20.359 -69.871 20.359 -69.871 Q20.359 -69.871 20.359 -69.871 V-0.589 Q20.359 -0.589 20.359 -0.589 Q20.359 -0.589 20.359 -0.589 Z M30.179 -10.409 H89.821 V-20.409 H30.179 V-10.409 Z M30.179 -30.23 H50.179 V-60.051 H30.179 V-30.23 Z M60 -30.23 H89.821 V-40.23 H60 V-30.23 Z M60 -50.051 H89.821 V-60.051 H60 V-50.051 Z"/></g><g id="Regular-M" transform="matrix(1 0 0 1 1394.06 1126)"><path d="M20 9.77 Q15.875 9.77 12.938 6.833 Q10 3.895 10 -0.23 V-70.23 Q10 -74.355 12.938 -77.292 Q15.875 -80.23 20 -80.23 H100 Q104.125 -80.23 107.062 -77.292 Q110 -74.355 110 -70.23 V-0.23 Q110 3.895 107.062 6.833 Q104.125 9.77 100 9.77 H20 Z M20 -0.23 H100 Q100 -0.23 100 -0.23 Q100 -0.23 100 -0.23 V-70.23 Q100 -70.23 100 -70.23 Q100 -70.23 100 -70.23 H20 Q20 -70.23 20 -70.23 Q20 -70.23 20 -70.23 V-0.23 Q20 -0.23 20 -0.23 Q20 -0.23 20 -0.23 Z M30 -10.23 H90 V-20.23 H30 V-10.23 Z M30 -30.23 H50 V-60.23 H30 V-30.23 Z M60 -30.23 H90 V-40.23 H60 V-30.23 Z M60 -50.23 H90 V-60.23 H60 V-50.23 Z"/></g><g id="Light-M" transform="matrix(1 0 0 1 1098.18 1126)"><path d="M21.539 7.27 Q17.75 7.27 15.125 4.645 Q12.5 2.02 12.5 -1.769 V-68.691 Q12.5 -72.48 15.125 -75.105 Q17.75 -77.73 21.539 -77.73 H98.461 Q102.25 -77.73 104.875 -75.105 Q107.5 -72.48 107.5 -68.691 V-1.769 Q107.5 2.02 104.875 4.645 Q102.25 7.27 98.461 7.27 H21.539 Z M21.539 -0.23 H98.461 Q99.038 -0.23 99.519 -0.711 Q100 -1.192 100 -1.769 V-68.691 Q100 -69.268 99.519 -69.749 Q99.038 -70.23 98.461 -70.23 H21.539 Q20.962 -70.23 20.481 -69.749 Q20 -69.268 20 -68.691 V-1.769 Q20 -1.192 20.481 -0.711 Q20.962 -0.23 21.539 -0.23 Z M31.923 -12.153 H88.077 V-19.653 H31.923 V-12.153 Z M31.923 -31.48 H50.385 V-58.307 H31.923 V-31.48 Z M61.346 -31.48 H88.077 V-38.98 H61.346 V-31.48 Z M61.346 -50.807 H88.077 V-58.307 H61.346 V-50.807 Z"/></g><g id="Thin-M" transform="matrix(1 0 0 1 802.565 1126)"><path d="M23.077 4.77 Q19.625 4.77 17.312 2.458 Q15 0.145 15 -3.307 V-67.153 Q15 -70.605 17.312 -72.917 Q19.625 -75.23 23.077 -75.23 H96.923 Q100.375 -75.23 102.688 -72.917 Q105 -70.605 105 -67.153 V-3.307 Q105 0.145 102.688 2.458 Q100.375 4.77 96.923 4.77 H23.077 Z M23.077 -0.23 H96.923 Q98.077 -0.23 99.038 -1.191 Q100 -2.153 100 -3.307 V-67.153 Q100 -68.307 99.038 -69.268 Q98.077 -70.23 96.923 -70.23 H23.077 Q21.923 -70.23 20.962 -69.268 Q20 -68.307 20 -67.153 V-3.307 Q20 -2.153 20.962 -1.191 Q21.923 -0.23 23.077 -0.23 Z M33.846 -14.076 H86.154 V-19.076 H33.846 V-14.076 Z M33.846 -32.73 H50.769 V-56.384 H33.846 V-32.73 Z M62.692 -32.73 H86.154 V-37.73 H62.692 V-32.73 Z M62.692 -51.384 H86.154 V-56.384 H62.692 V-51.384 Z"/></g><g id="Ultralight-M" transform="matrix(1 0 0 1 506.415 1126)"><path d="M24 3.27 Q20.75 3.27 18.625 1.145 Q16.5 -0.98 16.5 -4.23 V-66.23 Q16.5 -69.48 18.625 -71.605 Q20.75 -73.73 24 -73.73 H96 Q99.25 -73.73 101.375 -71.605 Q103.5 -69.48 103.5 -66.23 V-4.23 Q103.5 -0.98 101.375 1.145 Q99.25 3.27 96 3.27 H24 Z M24 -0.23 H96 Q97.5 -0.23 98.75 -1.48 Q100 -2.73 100 -4.23 V-66.23 Q100 -67.73 98.75 -68.98 Q97.5 -70.23 96 -70.23 H24 Q22.5 -70.23 21.25 -68.98 Q20 -67.73 20 -66.23 V-4.23 Q20 -2.73 21.25 -1.48 Q22.5 -0.23 24 -0.23 Z M35 -15.23 H85 V-18.73 H35 V-15.23 Z M35 -33.48 H51 V-55.23 H35 V-33.48 Z M63.5 -33.48 H85 V-36.98 H63.5 V-33.48 Z M63.5 -51.73 H85 V-55.23 H63.5 V-51.73 Z"/></g><g id="Bold-S" transform="matrix(1 0 0 1 2294.23 696)"><path d="M17.753 1.261 Q12.851 1.261 9.483 -2.107 Q6.115 -5.475 6.115 -10.376 V-60.083 Q6.115 -64.985 9.483 -68.353 Q12.851 -71.721 17.753 -71.721 H76.928 Q81.829 -71.721 85.197 -68.353 Q88.565 -64.985 88.565 -60.083 V-10.376 Q88.565 -5.475 85.197 -2.107 Q81.829 1.261 76.928 1.261 H17.753 Z M17.753 -10.376 H76.928 Q76.928 -10.376 76.928 -10.376 Q76.928 -10.376 76.928 -10.376 V-60.083 Q76.928 -60.083 76.928 -60.083 Q76.928 -60.083 76.928 -60.083 H17.753 Q17.753 -60.083 17.753 -60.083 Q17.753 -60.083 17.753 -60.083 V-10.376 Q17.753 -10.376 17.753 -10.376 Q17.753 -10.376 17.753 -10.376 Z M24.262 -19.253 H70.418 V-26.354 H24.262 V-19.253 Z M24.262 -32.863 H40.831 V-53.574 H24.262 V-32.863 Z M47.34 -32.863 H70.418 V-39.964 H47.34 V-32.863 Z M47.34 -46.473 H70.418 V-53.574 H47.34 V-46.473 Z"/></g><g id="Semibold-S" transform="matrix(1 0 0 1 1998.1 696)"><path d="M17.238 -0.197 Q13.194 -0.197 10.383 -3.007 Q7.573 -5.818 7.573 -9.862 V-60.598 Q7.573 -64.642 10.383 -67.453 Q13.194 -70.263 17.238 -70.263 H77.442 Q81.486 -70.263 84.297 -67.453 Q87.107 -64.642 87.107 -60.598 V-9.862 Q87.107 -5.818 84.297 -3.007 Q81.486 -0.197 77.442 -0.197 H17.238 Z M17.238 -9.862 H77.442 Q77.442 -9.862 77.442 -9.862 Q77.442 -9.862 77.442 -9.862 V-60.598 Q77.442 -60.598 77.442 -60.598 Q77.442 -60.598 77.442 -60.598 H17.238 Q17.238 -60.598 17.238 -60.598 Q17.238 -60.598 17.238 -60.598 V-9.862 Q17.238 -9.862 17.238 -9.862 Q17.238 -9.862 17.238 -9.862 Z M24.004 -18.995 H70.676 V-26.096 H24.004 V-18.995 Z M24.004 -32.863 H40.573 V-53.832 H24.004 V-32.863 Z M47.34 -32.863 H70.676 V-39.964 H47.34 V-32.863 Z M47.34 -46.731 H70.676 V-53.832 H47.34 V-46.731 Z"/></g><g id="Medium-S" transform="matrix(1 0 0 1 1701.85 696)"><path d="M16.852 -1.29 Q13.451 -1.29 11.059 -3.683 Q8.666 -6.075 8.666 -9.476 V-60.984 Q8.666 -64.385 11.059 -66.777 Q13.451 -69.17 16.852 -69.17 H77.828 Q81.229 -69.17 83.621 -66.777 Q86.014 -64.385 86.014 -60.984 V-9.476 Q86.014 -6.075 83.621 -3.683 Q81.229 -1.29 77.828 -1.29 H16.852 Z M16.852 -9.476 H77.828 Q77.828 -9.476 77.828 -9.476 Q77.828 -9.476 77.828 -9.476 V-60.984 Q77.828 -60.984 77.828 -60.984 Q77.828 -60.984 77.828 -60.984 H16.852 Q16.852 -60.984 16.852 -60.984 Q16.852 -60.984 16.852 -60.984 V-9.476 Q16.852 -9.476 16.852 -9.476 Q16.852 -9.476 16.852 -9.476 Z M23.812 -18.803 H70.868 V-25.904 H23.812 V-18.803 Z M23.812 -32.863 H40.381 V-54.024 H23.812 V-32.863 Z M47.34 -32.863 H70.868 V-39.964 H47.34 V-32.863 Z M47.34 -46.923 H70.868 V-54.024 H47.34 V-46.923 Z"/></g><g id="Regular-S" transform="matrix(1 0 0 1 1405.73 696)"><path d="M16.569 -2.092 Q13.64 -2.092 11.554 -4.178 Q9.468 -6.264 9.468 -9.193 V-61.267 Q9.468 -64.196 11.554 -66.282 Q13.64 -68.368 16.569 -68.368 H78.111 Q81.04 -68.368 83.126 -66.282 Q85.212 -64.196 85.212 -61.267 V-9.193 Q85.212 -6.264 83.126 -4.178 Q81.04 -2.092 78.111 -2.092 H16.569 Z M16.569 -9.193 H78.111 Q78.111 -9.193 78.111 -9.193 Q78.111 -9.193 78.111 -9.193 V-61.267 Q78.111 -61.267 78.111 -61.267 Q78.111 -61.267 78.111 -61.267 H16.569 Q16.569 -61.267 16.569 -61.267 Q16.569 -61.267 16.569 -61.267 V-9.193 Q16.569 -9.193 16.569 -9.193 Q16.569 -9.193 16.569 -9.193 Z M23.67 -18.661 H71.01 V-25.762 H23.67 V-18.661 Z M23.67 -32.863 H40.239 V-54.166 H23.67 V-32.863 Z M47.34 -32.863 H71.01 V-39.964 H47.34 V-32.863 Z M47.34 -47.065 H71.01 V-54.166 H47.34 V-47.065 Z"/></g><g id="Light-S" transform="matrix(1 0 0 1 1109.75 696)"><path d="M17.783 -4.065 Q15.119 -4.065 13.28 -5.904 Q11.441 -7.743 11.441 -10.407 V-60.053 Q11.441 -62.717 13.28 -64.556 Q15.119 -66.395 17.783 -66.395 H76.897 Q79.561 -66.395 81.4 -64.556 Q83.239 -62.717 83.239 -60.053 V-10.407 Q83.239 -7.743 81.4 -5.904 Q79.561 -4.065 76.897 -4.065 H17.783 Z M17.783 -9.193 H76.897 Q77.352 -9.193 77.732 -9.572 Q78.111 -9.952 78.111 -10.407 V-60.053 Q78.111 -60.508 77.732 -60.888 Q77.352 -61.267 76.897 -61.267 H17.783 Q17.328 -61.267 16.948 -60.888 Q16.569 -60.508 16.569 -60.053 V-10.407 Q16.569 -9.952 16.948 -9.572 Q17.328 -9.193 17.783 -9.193 Z M25.187 -20.178 H69.493 V-25.307 H25.187 V-20.178 Z M25.187 -33.849 H40.542 V-52.649 H25.187 V-33.849 Z M48.402 -33.849 H69.493 V-38.978 H48.402 V-33.849 Z M48.402 -47.52 H69.493 V-52.649 H48.402 V-47.52 Z"/></g><g id="Thin-S" transform="matrix(1 0 0 1 814.015 696)"><path d="M18.997 -6.037 Q16.599 -6.037 15.006 -7.63 Q13.413 -9.223 13.413 -11.621 V-58.839 Q13.413 -61.237 15.006 -62.83 Q16.599 -64.423 18.997 -64.423 H75.683 Q78.081 -64.423 79.674 -62.83 Q81.267 -61.237 81.267 -58.839 V-11.621 Q81.267 -9.223 79.674 -7.63 Q78.081 -6.037 75.683 -6.037 H18.997 Z M18.997 -9.193 H75.683 Q76.594 -9.193 77.352 -9.952 Q78.111 -10.71 78.111 -11.621 V-58.839 Q78.111 -59.75 77.352 -60.508 Q76.594 -61.267 75.683 -61.267 H18.997 Q18.086 -61.267 17.328 -60.508 Q16.569 -59.75 16.569 -58.839 V-11.621 Q16.569 -10.71 17.328 -9.952 Q18.086 -9.193 18.997 -9.193 Z M26.705 -21.696 H67.975 V-24.852 H26.705 V-21.696 Z M26.705 -34.835 H40.846 V-51.131 H26.705 V-34.835 Z M49.464 -34.835 H67.975 V-37.991 H49.464 V-34.835 Z M49.464 -47.975 H67.975 V-51.131 H49.464 V-47.975 Z"/></g><g id="Ultralight-S" transform="matrix(1 0 0 1 517.792 696)"><path d="M19.725 -7.22 Q17.486 -7.22 16.041 -8.665 Q14.597 -10.11 14.597 -12.349 V-58.111 Q14.597 -60.35 16.041 -61.795 Q17.486 -63.239 19.725 -63.239 H74.955 Q77.194 -63.239 78.639 -61.795 Q80.084 -60.35 80.084 -58.111 V-12.349 Q80.084 -10.11 78.639 -8.665 Q77.194 -7.22 74.955 -7.22 H19.725 Z M19.725 -9.193 H74.955 Q76.139 -9.193 77.125 -10.179 Q78.111 -11.165 78.111 -12.349 V-58.111 Q78.111 -59.294 77.125 -60.281 Q76.139 -61.267 74.955 -61.267 H19.725 Q18.541 -61.267 17.555 -60.281 Q16.569 -59.294 16.569 -58.111 V-12.349 Q16.569 -11.165 17.555 -10.179 Q18.541 -9.193 19.725 -9.193 Z M27.615 -22.606 H67.065 V-24.578 H27.615 V-22.606 Z M27.615 -35.427 H41.028 V-50.221 H27.615 V-35.427 Z M50.102 -35.427 H67.065 V-37.4 H50.102 V-35.427 Z M50.102 -48.248 H67.065 V-50.221 H50.102 V-48.248 Z"/></g></g></svg>